# xmcd
#
# Track frame offsets:
#  150
#  16055
#  30020
#  45262
#  57450
#  73347
#  86945
#  96205
#  108910
#  124175
#  138490
#  153950
#
# Disc length: 2224 seconds
#
# Revision: 0
# Processed by: cddbd v1.5.1PL0 Copyright (c) Steve Scherf et al.
# Submitted via: AltoMP3_Maker 3.0
#
DISCID=9608ae0c
DTITLE=Allegretto - Viola and Pássaros
DYEAR=1900
DGENRE=
TTITLE0=Felicidade
TTITLE1=Chico Mineiro
TTITLE2=Chitãozinho e Xororó
TTITLE3=Luar do Sertão
TTITLE4=Meu Reino Entantado
TTITLE5=Mãe Amorosa
TTITLE6=Cabloca Tereza
TTITLE7=Pingo D'Água
TTITLE8=Piracicaba
TTITLE9=Destinos Iguais
TTITLE10=Meu Velho Pai
TTITLE11=Meu Sertão
EXTD=
EXTT0=
EXTT1=
EXTT2=
EXTT3=
EXTT4=
EXTT5=
EXTT6=
EXTT7=
EXTT8=
EXTT9=
EXTT10=
EXTT11=
PLAYORDER=
